<svg xmlns="http://www.w3.org/2000/svg" width="24" height="24" viewBox="0 0 24 24" fill="currentColor"><g transform="translate(1.74,17) scale(0.01550,-0.01550)"><path d="M15 0 295 706H437L714 0H548L336 586H393L178 0ZM174 128V256H559V128Z"/></g><g transform="translate(13.04,17) scale(0.01550,-0.01550)"><path d="M257 -10Q190 -10 137.5 23.0Q85 56 54.5 113.0Q24 170 24 243Q24 316 54.5 373.0Q85 430 137.5 463.0Q190 496 257 496Q306 496 345.5 477.0Q385 458 410.0 424.5Q435 391 438 348V138Q435 95 410.5 61.5Q386 28 346.0 9.0Q306 -10 257 -10ZM288 128Q337 128 367.0 160.5Q397 193 397 243Q397 277 383.5 303.0Q370 329 345.5 343.5Q321 358 289 358Q257 358 232.5 343.5Q208 329 193.5 303.0Q179 277 179 243Q179 210 193.0 184.0Q207 158 232.0 143.0Q257 128 288 128ZM391 0V131L414 249L391 367V486H541V0Z"/></g></svg>
