<svg xmlns="http://www.w3.org/2000/svg" width="24" height="24" viewBox="0 0 24 24"><rect x="3.50" y="3.50" width="3.6" height="3.6" rx="0.8" fill="currentColor" stroke="none" opacity="0.95"/><rect x="3.50" y="7.90" width="3.6" height="3.6" rx="0.8" fill="currentColor" stroke="none" opacity="0.35"/><rect x="3.50" y="12.30" width="3.6" height="3.6" rx="0.8" fill="currentColor" stroke="none" opacity="0.95"/><rect x="3.50" y="16.70" width="3.6" height="3.6" rx="0.8" fill="currentColor" stroke="none" opacity="0.35"/><rect x="7.90" y="3.50" width="3.6" height="3.6" rx="0.8" fill="currentColor" stroke="none" opacity="0.35"/><rect x="7.90" y="7.90" width="3.6" height="3.6" rx="0.8" fill="currentColor" stroke="none" opacity="0.95"/><rect x="7.90" y="12.30" width="3.6" height="3.6" rx="0.8" fill="currentColor" stroke="none" opacity="0.35"/><rect x="7.90" y="16.70" width="3.6" height="3.6" rx="0.8" fill="currentColor" stroke="none" opacity="0.95"/><rect x="12.30" y="3.50" width="3.6" height="3.6" rx="0.8" fill="currentColor" stroke="none" opacity="0.95"/><rect x="12.30" y="7.90" width="3.6" height="3.6" rx="0.8" fill="currentColor" stroke="none" opacity="0.35"/><rect x="12.30" y="12.30" width="3.6" height="3.6" rx="0.8" fill="currentColor" stroke="none" opacity="0.95"/><rect x="12.30" y="16.70" width="3.6" height="3.6" rx="0.8" fill="currentColor" stroke="none" opacity="0.35"/><rect x="16.70" y="3.50" width="3.6" height="3.6" rx="0.8" fill="currentColor" stroke="none" opacity="0.35"/><rect x="16.70" y="7.90" width="3.6" height="3.6" rx="0.8" fill="currentColor" stroke="none" opacity="0.95"/><rect x="16.70" y="12.30" width="3.6" height="3.6" rx="0.8" fill="currentColor" stroke="none" opacity="0.35"/><rect x="16.70" y="16.70" width="3.6" height="3.6" rx="0.8" fill="currentColor" stroke="none" opacity="0.95"/></svg>
