<?xml version="1.0" encoding="UTF-8"?>
<svg id="Layer_1" xmlns="http://www.w3.org/2000/svg" xmlns:xlink="http://www.w3.org/1999/xlink" version="1.1" viewBox="0 0 387 205">
  <!-- Generator: Adobe Illustrator 29.0.1, SVG Export Plug-In . SVG Version: 2.1.0 Build 192)  -->
  <defs>
    <style>
      .st0, .st1, .st2 {
        fill: none;
      }

      .st3 {
        fill: #524c61;
      }

      .st3, .st1 {
        stroke-linecap: round;
      }

      .st3, .st1, .st2 {
        stroke: #524c61;
        stroke-width: 12.9px;
      }

      .st4 {
        clip-path: url(#clippath);
      }
    </style>
    <clipPath id="clippath">
      <path class="st0" d="M433.1-11.8H-2.1C-8.7-11.8-14.1-6.4-14.1.2v225.1c0,6.6,5.4,12,12,12h435.2c6.6,0,12-5.4,12-12V.2c0-6.6-5.4-12-12-12ZM409.3,165.4c0,28.9-23.5,52.4-52.4,52.4h-69.7c-28.9,0-52.4-23.5-52.4-52.4v-68.2c0-28.9,23.5-52.4,52.4-52.4h69.7c28.9,0,52.4,23.5,52.4,52.4v68.2Z"/>
    </clipPath>
  </defs>
  <rect class="st2" x="258" y="70.469" width="122.55" height="121.719" rx="26.4" ry="26.4"/>
  <line class="st1" x1="296.7" y1="108.906" x2="348.3" y2="108.906"/>
  <line class="st1" x1="296.7" y1="147.344" x2="348.3" y2="147.344"/>
  <g class="st4">
    <path class="st3" d="M220.7,157.4H80.6c-26.9-2.1-48.7-23.9-48.7-50.8s21.8-48.7,48.7-50.8h152.3c17,2.1,30.8,16,30.5,33.1s-14.4,29.9-31.1,29.9h-121c-6.3,0-11.9-4.7-12.4-11s5-13.3,12.1-13.3h101.6c4.5,0,8.1-3.6,8.1-8.1h0c0-4.5-3.6-8.1-8.1-8.1h-101.6c-18.7,1.3-30.5,11.5-30.5,28.4s13,26.9,30.5,27.3h121.9c26.7,3.1,48.4-18.3,48.7-44.9s-22.4-49.3-49.5-49.3H81.6c-36.9,0-67.6,29.4-68,66.3-.4,37.4,29.7,67.8,67,67.8h140.1v-16.4Z"/>
  </g>
</svg>