<?xml version="1.0" encoding="UTF-8"?>
<svg id="Layer_1" xmlns="http://www.w3.org/2000/svg" xmlns:xlink="http://www.w3.org/1999/xlink" version="1.1" viewBox="0 0 380.5 205">
  <!-- Generator: Adobe Illustrator 29.0.1, SVG Export Plug-In . SVG Version: 2.1.0 Build 192)  -->
  <defs>
    <style>
      .st0, .st1, .st2 {
        fill: none;
      }

      .st3 {
        fill: #524c61;
        stroke-linejoin: round;
      }

      .st3, .st1 {
        stroke-linecap: round;
      }

      .st3, .st1, .st2 {
        stroke: #524c61;
        stroke-width: 12.9px;
      }

      .st4 {
        clip-path: url(#clippath);
      }
    </style>
    <clipPath id="clippath">
      <path class="st0" d="M426.5-11.8H-8.7c-6.6,0-12,5.4-12,12v225.1c0,6.6,5.4,12,12,12h435.2c6.6,0,12-5.4,12-12V.2c0-6.6-5.4-12-12-12ZM402.7,165.4c0,28.9-23.5,52.4-52.4,52.4h-69.7c-28.9,0-52.4-23.5-52.4-52.4v-68.2c0-28.9,23.5-52.4,52.4-52.4h69.7c28.9,0,52.4,23.5,52.4,52.4v68.2Z"/>
    </clipPath>
  </defs>
  <rect class="st2" x="250.7" y="70.5" width="122.8" height="121.7" rx="26.4" ry="26.4"/>
  <line class="st1" x1="287" y1="108.3" x2="338.8" y2="108.3"/>
  <line class="st1" x1="287" y1="146.8" x2="338.8" y2="146.8"/>
  <g class="st4">
    <path class="st3" d="M210.8,155.1H77c-25.7-2-46.5-22.8-46.5-48.5s20.8-46.5,46.5-48.5h145.5c16.1,2,29.1,15,29.1,31.1s-13,29.1-29.1,29.1h-122.2c-6.4,0-11.6-5.2-11.6-11.6s5.2-11.6,11.6-11.6h110.5v-16.5h-110.5c-16.1-1-29.1,12-29.1,28.1s13,29.1,29.1,27.1h122.2c25.7,2,46.5-18.8,46.5-44.5s-20.8-46.5-46.5-46.5H77c-35.4,0-64,28.6-64,64s28.6,64,64,64h133.8v-17.5,1.8Z"/>
  </g>
</svg>