<?xml version="1.0" encoding="UTF-8"?>
<svg id="Layer_1" xmlns="http://www.w3.org/2000/svg" xmlns:xlink="http://www.w3.org/1999/xlink" version="1.1" viewBox="0 0 387 205">
  <!-- Generator: Adobe Illustrator 29.0.1, SVG Export Plug-In . SVG Version: 2.1.0 Build 192)  -->
  <defs>
    <style>
      .st0, .st1, .st2 {
        fill: none;
      }

      .st3 {
        fill: #524c61;
      }

      .st3, .st1 {
        stroke-linecap: round;
      }

      .st3, .st1, .st2 {
        stroke: #524c61;
        stroke-width: 12.9px;
      }

      .st4 {
        clip-path: url(#clippath);
      }
    </style>
    <clipPath id="clippath">
      <path class="st0" d="M432.15-12.812H0C-6.45-12.812-12.9-6.406-12.9 0V224.219C-12.9 230.625-6.45 237.031 0 237.031H432.15C438.6 237.031 445.05 230.625 445.05 224.219V0C445.05-6.406 438.6-12.812 432.15-12.812ZM406.35 166.562C406.35 192.188 387 217.812 354.75 217.812H290.25C258 217.812 232.2 192.188 232.2 166.562V96.094C232.2 70.469 258 44.844 290.25 44.844H354.75C387 44.844 406.35 70.469 406.35 96.094V166.562Z"/>
    </clipPath>
  </defs>
  <rect class="st2" x="258" y="70.469" width="122.55" height="121.719" rx="26.4" ry="26.4"/>
  <line class="st1" x1="296.7" y1="108.906" x2="348.3" y2="108.906"/>
  <line class="st1" x1="296.7" y1="147.344" x2="348.3" y2="147.344"/>
  <g class="st4">
    <path class="st3" d="M219.3 160.156H77.4C51.6 153.75 32.25 134.531 32.25 108.906S51.6 57.656 77.4 57.656H232.2C251.55 57.656 264.45 70.469 264.45 89.688S251.55 121.719 232.2 121.719H109.65C103.2 121.719 96.75 115.312 96.75 108.906S103.2 96.094 109.65 96.094H212.85C219.3 96.094 219.3 89.688 219.3 83.281H219.3C219.3 83.281 219.3 76.875 212.85 76.875H109.65C90.3 76.875 77.4 89.688 77.4 108.906S90.3 134.531 109.65 134.531H232.2C258 134.531 283.8 115.312 283.8 89.688S258 38.438 232.2 38.438H83.85C45.15 38.438 12.9 70.469 12.9 108.906C12.9 140.938 45.15 172.969 77.4 172.969H219.3V160.156Z"/>
  </g>
</svg>