<?xml version="1.0" encoding="UTF-8"?>
<svg id="Layer_1" xmlns="http://www.w3.org/2000/svg" xmlns:xlink="http://www.w3.org/1999/xlink" version="1.1" viewBox="0 0 380.5 205">
  <!-- Generator: Adobe Illustrator 29.0.1, SVG Export Plug-In . SVG Version: 2.1.0 Build 192)  -->
  <defs>
    <style>
      .st0, .st1, .st2 {
        fill: none;
      }

      .st3 {
        fill: #524c61;
      }

      .st3, .st1 {
        stroke-linecap: round;
      }

      .st3, .st1, .st2 {
        stroke: #524c61;
        stroke-width: 12.9px;
      }

      .st4 {
        clip-path: url(#clippath);
      }
    </style>
    <clipPath id="clippath">
      <path class="st0" d="M426.5-11.8H-8.7c-6.6,0-12,5.4-12,12v225.1c0,6.6,5.4,12,12,12h435.2c6.6,0,12-5.4,12-12V.2c0-6.6-5.4-12-12-12ZM402.7,165.4c0,28.9-23.5,52.4-52.4,52.4h-69.7c-28.9,0-52.4-23.5-52.4-52.4v-68.2c0-28.9,23.5-52.4,52.4-52.4h69.7c28.9,0,52.4,23.5,52.4,52.4v68.2Z"/>
    </clipPath>
  </defs>
  <rect class="st2" x="250.7" y="70.5" width="122.8" height="121.7" rx="26.4" ry="26.4"/>
  <line class="st1" x1="287" y1="108.3" x2="338.8" y2="108.3"/>
  <line class="st1" x1="287" y1="146.8" x2="338.8" y2="146.8"/>
  <g class="st4">
    <path class="st3" d="M211.9,155.9H76c-26.1-2-47.3-23.2-47.3-49.3s21.1-47.3,47.3-49.3h147.9c16.4,2,29.6,15.2,29.6,31.6s-13.2,29.6-29.6,29.6h-124.2c-6.5,0-11.8-5.3-11.8-11.8s5.3-11.8,11.8-11.8h112.3v-15.8h-112.3c-16.4-2-29.6,11.2-29.6,27.5s13.2,29.6,29.6,26.5h124.2c26.1,3,47.3-18.1,47.3-44.2s-21.1-47.3-47.3-47.3H76c-36,0-65,29.1-65,65s29.1,65,65,65h136v-16Z"/>
  </g>
</svg>