<svg xmlns="http://www.w3.org/2000/svg" width="902" height="72" viewBox="0 0 902 72"><rect x="2" y="2" width="898" height="68" rx="20" fill="#1f1b25"/><rect x="2" y="2" width="898" height="68" rx="20" fill="none" stroke="rgba(255,255,255,.08)" stroke-width="1.5"/><g transform="translate(30,24.0)" fill="none" stroke="#e8e2ee" stroke-width="2" stroke-linecap="round" stroke-linejoin="round"><path d="M6 4l13 6-5.5 1.8L11 19z" fill="none"/></g><rect x="62" y="16.0" width="40" height="40" rx="11" fill="#524c61"/><g transform="translate(70,24.0)" fill="none" stroke="#fff" stroke-width="2" stroke-linecap="round" stroke-linejoin="round"><path d="M5 19L19 5M13 5h6v6"/></g><g transform="translate(110,24.0)" fill="none" stroke="#e8e2ee" stroke-width="2" stroke-linecap="round" stroke-linejoin="round"><rect x="4" y="6" width="16" height="12" rx="2"/></g><g transform="translate(150,24.0)" fill="none" stroke="#e8e2ee" stroke-width="2" stroke-linecap="round" stroke-linejoin="round"><circle cx="12" cy="12" r="8"/></g><g transform="translate(190,24.0)" fill="none" stroke="#e8e2ee" stroke-width="2" stroke-linecap="round" stroke-linejoin="round"><path d="M5 19L19 5"/></g><g transform="translate(230,24.0)" fill="none" stroke="#e8e2ee" stroke-width="2" stroke-linecap="round" stroke-linejoin="round"><path d="M3 17c4 0 4-10 8-10s4 10 8 10"/></g><text x="282" y="42.0" font-family="Outfit,sans-serif" font-weight="700" font-size="18" fill="#e8e2ee" text-anchor="middle">Aa</text><g transform="translate(310,24.0)" fill="none" stroke="#e8e2ee" stroke-width="2" stroke-linecap="round" stroke-linejoin="round"><path d="M3 17l6-6 4 4 8-8M13 19h8"/></g><g transform="translate(350,24.0)" fill="none" stroke="#e8e2ee" stroke-width="2" stroke-linecap="round" stroke-linejoin="round"><rect x="3" y="3" width="8" height="8" rx="1"/><rect x="13" y="13" width="8" height="8" rx="1"/><path d="M13 5h6M5 13v6"/></g><g transform="translate(390,24.0)" fill="none" stroke="#e8e2ee" stroke-width="2" stroke-linecap="round" stroke-linejoin="round"><path d="M6 2v14a2 2 0 0 0 2 2h14M18 22V8a2 2 0 0 0-2-2H2"/></g><rect x="430" y="20.0" width="1.5" height="32" rx="1" fill="rgba(255,255,255,.14)"/><circle cx="458" cy="36.0" r="9" fill="#c9476b"/><circle cx="458" cy="36.0" r="13" fill="none" stroke="#fff" stroke-width="2"/><circle cx="488" cy="36.0" r="9" fill="#2c8fbf"/><circle cx="518" cy="36.0" r="9" fill="#e0fbfc"/><circle cx="548" cy="36.0" r="9" fill="#a29ab1"/><rect x="576" y="20.0" width="1.5" height="32" rx="1" fill="rgba(255,255,255,.14)"/><circle cx="603" cy="36.0" r="3" fill="#e8e2ee"/><circle cx="629" cy="36.0" r="5" fill="#e8e2ee"/><circle cx="655" cy="36.0" r="7" fill="#e8e2ee"/><rect x="678" y="20.0" width="1.5" height="32" rx="1" fill="rgba(255,255,255,.14)"/><g transform="translate(700,24.0)" fill="none" stroke="#e8e2ee" stroke-width="2" stroke-linecap="round" stroke-linejoin="round"><path d="M9 14L4 9l5-5M4 9h11a5 5 0 0 1 0 10h-3"/></g><g transform="translate(742,24.0)" fill="none" stroke="#e8e2ee" stroke-width="2" stroke-linecap="round" stroke-linejoin="round"><path d="M15 14l5-5-5-5M20 9H9a5 5 0 0 0 0 10h3"/></g><rect x="782" y="18.0" width="96" height="36" rx="18" fill="#524c61"/><g transform="translate(-12,-111)" fill="none" stroke="#e8e2ee" stroke-width="2" stroke-linecap="round" stroke-linejoin="round"><path d="M15 14l5-5-5-5M20 9H9a5 5 0 0 0 0 10h3"/></g><g transform="translate(798,36.0)" fill="none" stroke="#fff" stroke-width="2" stroke-linecap="round" stroke-linejoin="round"><rect x="3" y="-3" width="11" height="11" rx="2"/><path d="M0 5V-5a2 2 0 0 1 2-2h10"/></g><text x="826" y="41.0" font-family="Outfit,sans-serif" font-weight="600" font-size="15" fill="#fff">Copy</text></svg>