<svg xmlns="http://www.w3.org/2000/svg" width="772" height="150" viewBox="0 0 772 150"><g transform="translate(0.0,-27.3) scale(0.3906)">
  <!-- Generator: Adobe Illustrator 29.0.1, SVG Export Plug-In . SVG Version: 2.1.0 Build 192)  -->
  <defs>
    <style>
      .st0 {
        fill: #a29ab1;
      }

      .st1 {
        fill: #524c61;
      }
    </style>
  </defs>
  <path class="st0" d="M203.5,129v133.8c0,25.7-20.8,46.5-46.5,46.5s-46.5-20.8-46.5-46.5V117.3c0-16.1,13-29.1,29.1-29.1s29.1,13,29.1,29.1v122.2c0,6.4-5.2,11.6-11.6,11.6s-11.6-5.2-11.6-11.6v-110.5h-17.5v110.5c0,16.1,13,29.1,29.1,29.1s29.1-13,29.1-29.1v-122.2c0-25.7-20.8-46.5-46.5-46.5s-46.5,20.8-46.5,46.5v145.5c0,35.4,28.6,64,64,64s64-28.6,64-64v-133.8h-17.5Z"/>
  <g>
    <path class="st1" d="M246.6,360.5c-25.7,0-46.5-20.8-46.5-46.5v-145.5c0-16.1,13-29.1,29.1-29.1s29.1,13,29.1,29.1v122.2c0,6.4-5.2,11.6-11.6,11.6s-11.6-5.2-11.6-11.6v-110.5h-17.5v110.5c0,16.1,13,29.1,29.1,29.1s3.6-.2,5.4-.5c2.1-13.1,11.4-23.8,23.7-27.9,0-.2,0-.4,0-.6v-122.2c0-25.7-20.8-46.5-46.5-46.5s-46.5,20.8-46.5,46.5v145.5c0,35.4,28.6,64,64,64s3.3,0,4.9-.2v-17.5c-1.6.2-3.3.3-4.9.3Z"/>
    <rect class="st1" x="293.1" y="180.2" width="17.5" height="109.3"/>
  </g>
  <circle class="st1" cx="311" cy="347" r="13"/>
  <rect class="st1" x="334" y="340" width="48" height="16"/>
  <circle class="st1" cx="311" cy="380" r="13"/>
  <rect class="st1" x="334" y="373" width="48" height="16"/>
  <circle class="st1" cx="311" cy="413" r="13"/>
  <rect class="st1" x="334" y="406" width="48" height="16"/>
  
  <path class="st1" d="M395.7,455.3h-105.8c-12.8,0-23.1-10.4-23.1-23.1v-103.4c0-12.8,10.4-23.1,23.1-23.1h105.8c12.8,0,23.1,10.4,23.1,23.1v103.4c0,12.8-10.4,23.1-23.1,23.1ZM289.9,320.6c-4.5,0-8.1,3.6-8.1,8.1v103.4c0,4.5,3.6,8.1,8.1,8.1h105.8c4.5,0,8.1-3.6,8.1-8.1v-103.4c0-4.5-3.6-8.1-8.1-8.1h-105.8Z"/>
</g><g fill="#1f1b25"><g transform="translate(160.56,113.50) scale(0.11000,-0.11000)"><path d="M289 -11Q214 -11 153.0 22.0Q92 55 57.0 113.0Q22 171 22 243Q22 316 57.5 373.5Q93 431 154.0 464.0Q215 497 291 497Q348 497 395.5 477.5Q443 458 480 419L382 321Q365 340 342.5 349.0Q320 358 291 358Q258 358 232.5 343.5Q207 329 192.5 303.5Q178 278 178 244Q178 210 192.5 184.0Q207 158 233.0 143.0Q259 128 291 128Q321 128 344.5 138.5Q368 149 385 168L482 70Q444 30 396.0 9.5Q348 -11 289 -11Z"/></g><g transform="translate(215.12,113.50) scale(0.11000,-0.11000)"><path d="M54 0V726H207V0Z"/></g><g transform="translate(243.83,113.50) scale(0.11000,-0.11000)"><path d="M54 0V486H207V0ZM131 553Q95 553 71.5 577.5Q48 602 48 637Q48 673 71.5 697.0Q95 721 131 721Q167 721 190.0 697.0Q213 673 213 637Q213 602 190.0 577.5Q167 553 131 553Z"/></g><g transform="translate(272.54,113.50) scale(0.11000,-0.11000)"><path d="M334 -10Q285 -10 244.0 9.0Q203 28 177.0 61.5Q151 95 147 138V343Q151 386 177.0 421.0Q203 456 244.0 476.0Q285 496 334 496Q403 496 456.5 463.0Q510 430 540.5 373.0Q571 316 571 243Q571 170 540.5 113.0Q510 56 456.5 23.0Q403 -10 334 -10ZM54 -205V486H207V361L182 243L205 125V-205ZM306 128Q339 128 363.5 143.0Q388 158 402.0 184.0Q416 210 416 243Q416 277 402.0 303.0Q388 329 363.5 343.5Q339 358 307 358Q275 358 250.5 343.5Q226 329 212.0 303.0Q198 277 198 243Q198 210 211.5 184.0Q225 158 250.0 143.0Q275 128 306 128Z"/></g><g transform="translate(337.99,113.50) scale(0.11000,-0.11000)"><path d="M257 -10Q190 -10 137.5 23.0Q85 56 54.5 113.0Q24 170 24 243Q24 316 54.5 373.0Q85 430 137.5 463.0Q190 496 257 496Q306 496 345.5 477.0Q385 458 410.0 424.5Q435 391 438 348V138Q435 95 410.5 61.5Q386 28 346.0 9.0Q306 -10 257 -10ZM288 128Q337 128 367.0 160.5Q397 193 397 243Q397 277 383.5 303.0Q370 329 345.5 343.5Q321 358 289 358Q257 358 232.5 343.5Q208 329 193.5 303.0Q179 277 179 243Q179 210 193.0 184.0Q207 158 232.0 143.0Q257 128 288 128ZM391 0V131L414 249L391 367V486H541V0Z"/></g><g transform="translate(403.44,113.50) scale(0.11000,-0.11000)"><path d="M375 0V277Q375 315 351.5 338.5Q328 362 292 362Q267 362 248.0 351.5Q229 341 218.0 321.5Q207 302 207 277L148 306Q148 363 173.0 406.0Q198 449 242.5 472.5Q287 496 343 496Q397 496 438.5 470.5Q480 445 504.0 403.0Q528 361 528 311V0ZM54 0V486H207V0Z"/></g><g transform="translate(466.36,113.50) scale(0.11000,-0.11000)"><path d="M261 -10Q192 -10 138.5 23.0Q85 56 54.5 113.0Q24 170 24 243Q24 316 54.5 373.0Q85 430 138.5 463.0Q192 496 261 496Q311 496 351.5 477.0Q392 458 418.5 424.5Q445 391 448 348V143Q445 100 419.0 65.5Q393 31 352.0 10.5Q311 -10 261 -10ZM288 128Q321 128 345.0 142.5Q369 157 383.0 183.0Q397 209 397 243Q397 277 383.5 302.5Q370 328 345.5 343.0Q321 358 289 358Q257 358 232.5 343.0Q208 328 193.5 302.0Q179 276 179 243Q179 210 193.0 184.0Q207 158 232.0 143.0Q257 128 288 128ZM541 0H391V131L414 249L388 367V726H541Z"/></g><g transform="translate(531.81,113.50) scale(0.11000,-0.11000)"><path d="M375 0V277Q375 315 351.5 338.5Q328 362 292 362Q267 362 248.0 351.5Q229 341 218.0 321.5Q207 302 207 277L148 306Q148 363 173.0 406.0Q198 449 242.5 472.5Q287 496 343 496Q397 496 438.5 470.5Q480 445 504.0 403.0Q528 361 528 311V0ZM54 0V486H207V0Z"/></g><g transform="translate(594.73,113.50) scale(0.11000,-0.11000)"><path d="M288 -11Q213 -11 152.5 22.5Q92 56 57.0 114.0Q22 172 22 244Q22 316 57.0 373.0Q92 430 152.0 463.5Q212 497 288 497Q364 497 424.0 464.0Q484 431 519.0 373.5Q554 316 554 244Q554 172 519.0 114.0Q484 56 424.0 22.5Q364 -11 288 -11ZM288 128Q321 128 346.0 142.5Q371 157 384.5 183.5Q398 210 398 244Q398 278 384.0 303.5Q370 329 345.5 343.5Q321 358 288 358Q256 358 231.0 343.5Q206 329 192.0 303.0Q178 277 178 243Q178 210 192.0 183.5Q206 157 231.0 142.5Q256 128 288 128Z"/></g><g transform="translate(658.09,113.50) scale(0.11000,-0.11000)"><path d="M123 0V687H276V0ZM13 356V486H386V356Z"/></g><g transform="translate(701.98,113.50) scale(0.11000,-0.11000)"><path d="M294 -11Q215 -11 153.5 21.5Q92 54 57.0 112.0Q22 170 22 243Q22 316 56.5 373.5Q91 431 150.0 464.0Q209 497 283 497Q355 497 410.0 466.0Q465 435 496.5 380.0Q528 325 528 254Q528 241 526.5 226.5Q525 212 521 193L102 192V297L456 298L390 254Q389 296 377.0 323.5Q365 351 341.5 365.5Q318 380 284 380Q248 380 221.5 363.5Q195 347 180.5 317.0Q166 287 166 244Q166 201 181.5 170.5Q197 140 225.5 123.5Q254 107 293 107Q329 107 358.0 119.5Q387 132 409 157L493 73Q457 31 406.0 10.0Q355 -11 294 -11Z"/></g></g></svg>