<?xml version="1.0" encoding="UTF-8"?>
<svg id="Layer_1" xmlns="http://www.w3.org/2000/svg" xmlns:xlink="http://www.w3.org/1999/xlink" version="1.1" viewBox="0 0 512 512">
  <!-- Generator: Adobe Illustrator 29.0.1, SVG Export Plug-In . SVG Version: 2.1.0 Build 192)  -->
  <defs>
    <style>
      .st0 {
        fill: #a29ab1;
      }

      .st1 {
        fill: #524c61;
      }
    </style>
  </defs>
  <path class="st0" d="M203.5,129v133.8c0,25.7-20.8,46.5-46.5,46.5s-46.5-20.8-46.5-46.5V117.3c0-16.1,13-29.1,29.1-29.1s29.1,13,29.1,29.1v122.2c0,6.4-5.2,11.6-11.6,11.6s-11.6-5.2-11.6-11.6v-110.5h-17.5v110.5c0,16.1,13,29.1,29.1,29.1s29.1-13,29.1-29.1v-122.2c0-25.7-20.8-46.5-46.5-46.5s-46.5,20.8-46.5,46.5v145.5c0,35.4,28.6,64,64,64s64-28.6,64-64v-133.8h-17.5Z"/>
  <g>
    <path class="st1" d="M246.6,360.5c-25.7,0-46.5-20.8-46.5-46.5v-145.5c0-16.1,13-29.1,29.1-29.1s29.1,13,29.1,29.1v122.2c0,6.4-5.2,11.6-11.6,11.6s-11.6-5.2-11.6-11.6v-110.5h-17.5v110.5c0,16.1,13,29.1,29.1,29.1s3.6-.2,5.4-.5c2.1-13.1,11.4-23.8,23.7-27.9,0-.2,0-.4,0-.6v-122.2c0-25.7-20.8-46.5-46.5-46.5s-46.5,20.8-46.5,46.5v145.5c0,35.4,28.6,64,64,64s3.3,0,4.9-.2v-17.5c-1.6.2-3.3.3-4.9.3Z"/>
    <rect class="st1" x="293.1" y="180.2" width="17.5" height="109.3"/>
  </g>
  <circle class="st1" cx="311" cy="347" r="13"/>
  <rect class="st1" x="334" y="340" width="48" height="16"/>
  <circle class="st1" cx="311" cy="380" r="13"/>
  <rect class="st1" x="334" y="373" width="48" height="16"/>
  <circle class="st1" cx="311" cy="413" r="13"/>
  <rect class="st1" x="334" y="406" width="48" height="16"/>
  <image id="_x35_wHd91" width="4112" height="268" transform="translate(-713.6 -729.4) scale(.5)" xlink:href="mark_accent-1.png"/>
  <path class="st1" d="M395.7,455.3h-105.8c-12.8,0-23.1-10.4-23.1-23.1v-103.4c0-12.8,10.4-23.1,23.1-23.1h105.8c12.8,0,23.1,10.4,23.1,23.1v103.4c0,12.8-10.4,23.1-23.1,23.1ZM289.9,320.6c-4.5,0-8.1,3.6-8.1,8.1v103.4c0,4.5,3.6,8.1,8.1,8.1h105.8c4.5,0,8.1-3.6,8.1-8.1v-103.4c0-4.5-3.6-8.1-8.1-8.1h-105.8Z"/>
</svg>