<?xml version="1.0" encoding="UTF-8"?>
<svg id="Layer_1" xmlns="http://www.w3.org/2000/svg" version="1.1" viewBox="0 0 2773 535">
  <!-- Generator: Adobe Illustrator 29.0.1, SVG Export Plug-In . SVG Version: 2.1.0 Build 192)  -->
  <defs>
    <style>
      .st0 {
        fill: #fff;
      }
    </style>
  </defs>
  <polygon class="st0" points="371.4 217.4 313.2 183.7 313.2 76.4 313.5 76.3 313.2 76.1 313.2 76 313.1 76.1 191 5.6 68.5 76.3 146.6 121.3 161.8 130.1 190.7 146.8 190.7 288.2 68.2 217.5 68.2 183.7 10 217.4 124.8 283.7 190.6 321.7 190.5 321.7 190.5 530.4 371.2 426.1 371.2 217.5 371.4 217.4"/>
  <g>
    <path class="st0" d="M619.2,167.2v257h-56.6V167.2h-87.9v-48.9h232.5v48.9h-87.9Z"/>
    <path class="st0" d="M866.3,429.3c-66.5,0-124.4-37.3-124.4-105.5v-97.8c0-72.5,61.8-112.8,122.3-112.8s124.4,43.3,124.4,111.5v91.8c0,72.5-61.8,112.8-122.3,112.8ZM932,221.7c0-36.9-31.7-57.9-67.8-57.9s-65.6,15.4-65.6,59.2v97.8c0,36.9,31.7,57.9,67.8,57.9s65.6-15.4,65.6-59.2v-97.8Z"/>
    <path class="st0" d="M1159.3,302.3v121.8h-55.3v-122.7l-102.5-183.2h62.6l68.2,128.3,67.8-128.3h62.2l-103,184Z"/>
    <path class="st0" d="M1578.5,424.2l-71.6-114.5h-49.3v114.5h-57.1V118.3h121c27.9,0,50.2,5.6,70.4,21.4,21,16.3,33.5,43.8,33.5,74.6s-19.3,74.2-60.5,88.8l75.9,121h-62.2ZM1513.7,166.3h-56.2v95.2h57.1c33,0,54.9-15.9,54.9-47.6s-24-47.6-55.8-47.6Z"/>
    <path class="st0" d="M1796.4,429.3c-66.5,0-124.4-37.3-124.4-105.5v-97.8c0-72.5,61.8-112.8,122.3-112.8s124.4,43.3,124.4,111.5v91.8c0,72.5-61.8,112.8-122.3,112.8ZM1862.1,221.7c0-36.9-31.7-57.9-67.8-57.9s-65.6,15.4-65.6,59.2v97.8c0,36.9,31.7,57.9,67.8,57.9s65.6-15.4,65.6-59.2v-97.8Z"/>
    <path class="st0" d="M2111.3,424.2h-138.6V118.3h131.3c59.2,0,94.4,26.2,94.4,78.9s-12,50.2-43.3,64.8l.4.4c35.2,9.4,52.3,39.5,52.3,73.8,0,57.5-45.9,87.9-96.5,87.9ZM2094.6,166.8h-64.8v77.2h67.4c28.7,0,45.5-14.6,45.5-39.5s-19.3-37.8-48-37.8ZM2101.9,292h-72.1v83.7h71.6c30.5,0,49.8-15,49.8-42.9s-17.6-40.8-49.3-40.8Z"/>
    <path class="st0" d="M2373.5,429.3c-66.5,0-124.4-37.3-124.4-105.5v-97.8c0-72.5,61.8-112.8,122.3-112.8s124.4,43.3,124.4,111.5v91.8c0,72.5-61.8,112.8-122.3,112.8ZM2439.1,221.7c0-36.9-31.7-57.9-67.8-57.9s-65.6,15.4-65.6,59.2v97.8c0,36.9,31.7,57.9,67.8,57.9s65.6-15.4,65.6-59.2v-97.8Z"/>
    <path class="st0" d="M2675.1,167.2v257h-56.6V167.2h-87.9v-48.9h232.5v48.9h-87.9Z"/>
  </g>
</svg>